<svg xmlns="http://www.w3.org/2000/svg" width="13.91" height="14" viewBox="0 0 13.91 14">
  <metadata><?xpacket begin="﻿" id="W5M0MpCehiHzreSzNTczkc9d"?>
<x:xmpmeta xmlns:x="adobe:ns:meta/" x:xmptk="Adobe XMP Core 5.6-c138 79.159824, 2016/09/14-01:09:01        ">
   <rdf:RDF xmlns:rdf="http://www.w3.org/1999/02/22-rdf-syntax-ns#">
      <rdf:Description rdf:about=""/>
   </rdf:RDF>
</x:xmpmeta>
                                                                                                    
                                                                                                    
                                                                                                    
                                                                                                    
                                                                                                    
                                                                                                    
                                                                                                    
                                                                                                    
                                                                                                    
                                                                                                    
                                                                                                    
                                                                                                    
                                                                                                    
                                                                                                    
                                                                                                    
                                                                                                    
                                                                                                    
                                                                                                    
                                                                                                    
                                                                                                    
                           
<?xpacket end="w"?></metadata>
<defs>
    <style>
      .cls-1 {
        fill: #d7d7d7;
        fill-rule: evenodd;
        opacity: 0.34;
      }
    </style>
  </defs>
  <path class="cls-1" d="M1457.52,3095h-9.14a2.39,2.39,0,0,0-2.38,2.4v9.2a2.4,2.4,0,0,0,2.38,2.4h9.14a2.4,2.4,0,0,0,2.38-2.4v-9.2A2.39,2.39,0,0,0,1457.52,3095Zm-6.74,5.78h0.01a1.093,1.093,0,0,1,.08-0.15c0.02-.03.04-0.05,0.06-0.08a0.55,0.55,0,0,1,.07-0.09,0.3,0.3,0,0,0,.05-0.07c0.04-.05.08-0.09,0.12-0.14a0.435,0.435,0,0,0,.07-0.06,0.647,0.647,0,0,1,.09-0.08l0.06-.06a0.906,0.906,0,0,1,.16-0.11,0.209,0.209,0,0,1,.06-0.04,1.249,1.249,0,0,1,.12-0.08l0.06-.03c0.06-.03.12-0.06,0.19-0.09a0.147,0.147,0,0,1,.04-0.02c0.05-.02.11-0.04,0.16-0.06,0.02,0,.04-0.01.06-0.01,0.07-.02.14-0.04,0.2-0.06h0.03a1.2,1.2,0,0,1,.2-0.03c0.02,0,.04-0.01.06-0.01a1.62,1.62,0,0,1,.22-0.01,1.77,1.77,0,0,1,.23.01,0.433,0.433,0,0,1,.05.01,1.2,1.2,0,0,1,.2.03h0.03c0.07,0.02.14,0.04,0.2,0.06,0.02,0,.04.01,0.06,0.01,0.06,0.02.11,0.04,0.17,0.06a0.147,0.147,0,0,0,.04.02l0.18,0.09,0.06,0.03c0.04,0.03.09,0.05,0.13,0.08a0.209,0.209,0,0,1,.06.04,1.431,1.431,0,0,1,.15.11l0.06,0.06a0.647,0.647,0,0,1,.09.08,0.435,0.435,0,0,1,.07.06c0.04,0.05.08,0.09,0.12,0.14,0.02,0.02.04,0.05,0.06,0.07l0.06,0.09c0.02,0.03.04,0.05,0.06,0.08a2.557,2.557,0,0,1,.4,1.37,2.48,2.48,0,1,1-4.96,0A2.542,2.542,0,0,1,1450.78,3100.78Zm7.63,5.07a1.746,1.746,0,0,1-1.74,1.76h-7.43a1.748,1.748,0,0,1-1.75-1.76v-5.06h1.68a3.739,3.739,0,0,0-.19,1.21,3.97,3.97,0,1,0,7.94,0,4.027,4.027,0,0,0-.18-1.21h1.67v5.06Zm0-8.05a0.2,0.2,0,0,1-.2.2h-1.09a0.2,0.2,0,0,1-.2-0.2v-1.1a0.2,0.2,0,0,1,.2-0.2h1.09a0.2,0.2,0,0,1,.2.2v1.1Z" transform="translate(-1446 -3095)"/>
</svg>
